<svg width="44" height="44" viewBox="0 0 44 44" fill="none" xmlns="http://www.w3.org/2000/svg">
<g id="Remove">
<path id="Background" fill-rule="evenodd" clip-rule="evenodd" d="M22 44C34.1503 44 44 34.1503 44 22C44 9.84974 34.1503 0 22 0C9.84974 0 0 9.84974 0 22C0 34.1503 9.84974 44 22 44Z" fill="#007AFF"/>
<path id="Union" fill-rule="evenodd" clip-rule="evenodd" d="M23.8333 12.8333C23.8333 11.8208 23.0125 11 22 11C20.9875 11 20.1667 11.8208 20.1667 12.8333V20.1667H12.8333C11.8208 20.1667 11 20.9875 11 22C11 23.0125 11.8208 23.8333 12.8333 23.8333H20.1667V31.1667C20.1667 32.1792 20.9875 33 22 33C23.0125 33 23.8333 32.1792 23.8333 31.1667V23.8333H31.1667C32.1792 23.8333 33 23.0125 33 22C33 20.9875 32.1792 20.1667 31.1667 20.1667H23.8333V12.8333Z" fill="white"/>
</g>
</svg>
