<svg width="24" height="24" viewBox="0 0 24 24" fill="none" xmlns="http://www.w3.org/2000/svg">
<g id="Bounds">
<circle id="Ellipse 2" cx="12" cy="12" r="11" fill="white"/>
<path id="Title" d="M12.0057 24C18.5861 24 24 18.5861 24 12.0057C24 5.41387 18.5861 0 11.9943 0C5.40255 0 0 5.41387 0 12.0057C0 18.5861 5.41387 24 12.0057 24ZM10.7485 17.7027C10.2388 17.7027 9.81973 17.4648 9.46862 17.0231L6.81831 13.8745C6.54648 13.5573 6.44455 13.2629 6.44455 12.9231C6.44455 12.2095 7.02218 11.6432 7.73572 11.6432C8.14346 11.6432 8.4606 11.8131 8.7664 12.1756L10.7258 14.554L15.109 7.59981C15.4148 7.11279 15.7886 6.86362 16.2416 6.86362C16.9438 6.86362 17.5781 7.38462 17.5781 8.09816C17.5781 8.38131 17.4648 8.69844 17.261 8.99292L11.9943 17.0005C11.6999 17.4422 11.2468 17.7027 10.7485 17.7027Z" fill="#34C759"/>
</g>
</svg>
