<svg width="7" height="13" viewBox="0 0 7 13" fill="none" xmlns="http://www.w3.org/2000/svg">
<path id="Icon" d="M1.01514 12.4517C1.28076 12.4517 1.50488 12.3604 1.6875 12.1777L6.65967 7.25537C6.89209 7.03125 7 6.79053 7 6.5C7 6.20947 6.89209 5.96045 6.66797 5.74463L1.6875 0.822266C1.50488 0.639648 1.28076 0.54834 1.01514 0.54834C0.483887 0.54834 0.0522461 0.97168 0.0522461 1.50293C0.0522461 1.76855 0.160156 2.00928 0.351074 2.2085L4.71729 6.5083L0.351074 10.7998C0.160156 10.9907 0.0522461 11.2314 0.0522461 11.4971C0.0522461 12.0283 0.483887 12.4517 1.01514 12.4517Z" fill="#8E8E93"/>
</svg>
